<svg width="144" height="47" viewBox="0 0 144 47" fill="none" xmlns="http://www.w3.org/2000/svg">
<path d="M0.43457 46.8553V7.56138C0.43457 3.38517 3.80374 0 7.95995 0H13.0962V46.8553H0.43457Z" fill="url(#paint0_linear_3589_6000)"/>
<path d="M87.6293 41.5449H77.6768L78.7438 46.8562H89.1333L87.6293 41.5449Z" fill="url(#paint1_linear_3589_6000)"/>
<path d="M84.3997 27.7714L77.5183 0H64.8437L61.7795 12.5286C61.6225 13.1737 61.4515 13.8357 61.2805 14.5437L60.9245 15.9958L58.0444 27.7714H57.1553C55.0352 27.7714 53.1401 29.5505 52.4351 32.2106L50.875 38.1119H55.5122L53.3711 46.8543H63.8096L65.5877 38.1119H86.9638V38.1029L84.3987 27.7714H84.3997ZM67.5588 27.7714L71.239 7.68938L75.0422 27.7714H67.5588Z" fill="url(#paint2_linear_3589_6000)"/>
<path d="M67.559 27.7724L71.2391 7.69043C71.0951 8.77948 70.8081 10.5686 70.3841 13.0557C69.9601 15.5428 69.016 20.4461 67.559 27.7724Z" fill="url(#paint3_linear_3589_6000)"/>
<path d="M75.0422 27.7724L73.5241 20.1101C73.1751 18.403 72.7441 16.2059 72.2381 13.5007C71.732 10.8046 71.397 8.86149 71.239 7.69043L75.0422 27.7724Z" fill="url(#paint4_linear_3589_6000)"/>
<g style="mix-blend-mode:soft-light">
<path d="M55.5139 38.1143L53.6488 45.7316L65.5904 38.1143H55.5139Z" fill="black"/>
</g>
<g style="mix-blend-mode:soft-light">
<path d="M67.5595 27.7721L68.9216 20.3447L58.045 27.7721H67.5595Z" fill="black"/>
</g>
<path d="M128.777 29.2627H116.315V46.8566H128.777V29.2627Z" fill="url(#paint5_linear_3589_6000)"/>
<path d="M142.815 26.792V29.2622H116.315V19.0977H135.121C139.37 19.0977 142.815 22.5438 142.815 26.791V26.792Z" fill="url(#paint6_linear_3589_6000)"/>
<path d="M144 0V10.1645H128.777V14.3587H116.316V0H144Z" fill="url(#paint7_linear_3589_6000)"/>
<g style="mix-blend-mode:soft-light">
<path d="M128.777 29.2627L116.315 40.0822V29.2627H128.777Z" fill="black"/>
</g>
<path d="M41.8846 0H26.5508C21.7075 0 17.7823 3.9262 17.7823 8.76844V10.3555H29.2229V46.8553H41.8846V0Z" fill="url(#paint8_linear_3589_6000)"/>
<path d="M56.0235 0H45.531V10.3555H56.0235V0Z" fill="url(#paint9_linear_3589_6000)"/>
<path d="M93.6085 46.8553V7.56138C93.6085 3.38517 96.9777 0 101.134 0H106.27V46.8553H93.6085Z" fill="url(#paint10_linear_3589_6000)"/>
<defs>
<linearGradient id="paint0_linear_3589_6000" x1="6.76589" y1="0.0840042" x2="6.76589" y2="48.7634" gradientUnits="userSpaceOnUse">
<stop stop-color="#5FECFF"/>
<stop offset="1" stop-color="#B500DA"/>
</linearGradient>
<linearGradient id="paint1_linear_3589_6000" x1="83.405" y1="0.276873" x2="83.405" y2="48.7573" gradientUnits="userSpaceOnUse">
<stop stop-color="#5FECFF"/>
<stop offset="1" stop-color="#B500DA"/>
</linearGradient>
<linearGradient id="paint2_linear_3589_6000" x1="68.9209" y1="0.276014" x2="68.9209" y2="48.7564" gradientUnits="userSpaceOnUse">
<stop stop-color="#5FECFF"/>
<stop offset="1" stop-color="#B500DA"/>
</linearGradient>
<linearGradient id="paint3_linear_3589_6000" x1="69.3991" y1="0.277058" x2="69.3991" y2="48.7575" gradientUnits="userSpaceOnUse">
<stop stop-color="#5FECFF"/>
<stop offset="1" stop-color="#B500DA"/>
</linearGradient>
<linearGradient id="paint4_linear_3589_6000" x1="73.1411" y1="0.277058" x2="73.1411" y2="48.7575" gradientUnits="userSpaceOnUse">
<stop stop-color="#5FECFF"/>
<stop offset="1" stop-color="#B500DA"/>
</linearGradient>
<linearGradient id="paint5_linear_3589_6000" x1="122.546" y1="1.4033" x2="122.546" y2="51.2538" gradientUnits="userSpaceOnUse">
<stop stop-color="#5FECFF"/>
<stop offset="1" stop-color="#B500DA"/>
</linearGradient>
<linearGradient id="paint6_linear_3589_6000" x1="129.565" y1="1.40277" x2="129.565" y2="51.2533" gradientUnits="userSpaceOnUse">
<stop stop-color="#5FECFF"/>
<stop offset="1" stop-color="#B500DA"/>
</linearGradient>
<linearGradient id="paint7_linear_3589_6000" x1="130.158" y1="1.40207" x2="130.158" y2="51.2526" gradientUnits="userSpaceOnUse">
<stop stop-color="#5FECFF"/>
<stop offset="1" stop-color="#B500DA"/>
</linearGradient>
<linearGradient id="paint8_linear_3589_6000" x1="29.834" y1="1.40707" x2="29.834" y2="51.2576" gradientUnits="userSpaceOnUse">
<stop stop-color="#5FECFF"/>
<stop offset="1" stop-color="#B500DA"/>
</linearGradient>
<linearGradient id="paint9_linear_3589_6000" x1="50.7773" y1="1.40707" x2="50.7773" y2="51.2576" gradientUnits="userSpaceOnUse">
<stop stop-color="#5FECFF"/>
<stop offset="1" stop-color="#B500DA"/>
</linearGradient>
<linearGradient id="paint10_linear_3589_6000" x1="99.9398" y1="0" x2="99.9398" y2="0" gradientUnits="userSpaceOnUse">
<stop stop-color="#5FECFF"/>
<stop offset="1" stop-color="#B500DA"/>
</linearGradient>
</defs>
</svg>
